<svg xmlns:dc="http://purl.org/dc/elements/1.1/" xmlns:cc="http://creativecommons.org/ns#" xmlns:rdf="http://www.w3.org/1999/02/22-rdf-syntax-ns#" xmlns:svg="http://www.w3.org/2000/svg" xmlns="http://www.w3.org/2000/svg" xmlns:sodipodi="http://sodipodi.sourceforge.net/DTD/sodipodi-0.dtd" xmlns:inkscape="http://www.inkscape.org/namespaces/inkscape" width="24" height="24" viewBox="0 0 58.209339 33.761875" version="1.1" id="svg8" inkscape:version="0.92.3 (2405546, 2018-03-11)" sodipodi:docname="blx-logo-black.svg">
  <defs id="defs2" fill="#ffffff"/>
  <sodipodi:namedview id="base" pagecolor="#ffffff" bordercolor="#ffffff" borderopacity="1.0" inkscape:pageopacity="0.0" inkscape:pageshadow="2" inkscape:zoom="0.35" inkscape:cx="323.0406" inkscape:cy="-597.06062" inkscape:document-units="mm" inkscape:current-layer="svg8" showgrid="false" inkscape:window-width="1920" inkscape:window-height="1017" inkscape:window-x="1912" inkscape:window-y="-8" inkscape:window-maximized="1" fit-margin-top="0" fit-margin-left="0" fit-margin-right="0" fit-margin-bottom="0" fill="#ffffff"/>
  <metadata id="metadata5" fill="#ffffff">
    <rdf:RDF fill="#ffffff">
      <cc:Work rdf:about="" fill="#ffffff">
        <dc:format fill="#ffffff">image/svg+xml</dc:format>
        <dc:type rdf:resource="http://purl.org/dc/dcmitype/StillImage" fill="#ffffff"/>
        <dc:title fill="#ffffff"/>
      </cc:Work>
    </rdf:RDF>
  </metadata>
  <path style="fill:#ffffff;fill-opacity:1;stroke:#ffffff;stroke-width:0;stroke-miterlimit:4;stroke-opacity:1" d="m 33.709379,23.228975 h 4.024997 v 10.532813 h -4.024997 z m -6.559003,0 h 4.025 v 10.532813 h -4.025 z m -6.568797,8.8e-5 h 4.025 v 10.532812 h -4.025 z m 13.1278,-6.713529 h 4.024997 v 4.025 h -4.024997 z m -6.559003,0 h 4.025 v 4.025 h -4.025 z m -6.568797,0 h 4.025 v 4.025 h -4.025 z m 13.1278,-6.7539502 h 4.024997 v 4.0250002 h -4.024997 z m -6.559087,0 h 4.025 v 4.0250002 h -4.025 z m -6.568713,-2.1e-5 h 4.025 v 4.0250002 h -4.025 z M 29.104692,-1.7499997e-7 C 13.031673,-1.7499997e-7 6.75e-7,13.329347 6.75e-7,29.771875 c 0,0.176187 0.007944995,0.349538 0.010919995,0.525 H 16.843737 V 8.0718748 c 0,-0.87255 0.70245,-1.575 1.575,-1.575 h 21.481246 c 0.87255,0 1.575,0.70245 1.575,1.575 V 30.296875 h 16.723438 c 0.0031,-0.175462 0.01092,-0.348813 0.01092,-0.525 C 58.209341,13.329347 45.177672,-1.7499997e-7 29.104657,-1.7499997e-7 Z" id="path818" inkscape:connector-curvature="0"/>
</svg>
